<?xml version="1.0" encoding="UTF-8"?>
<!DOCTYPE svg PUBLIC "-//W3C//DTD SVG 1.1//EN" "http://www.w3.org/Graphics/SVG/1.1/DTD/svg11.dtd">
<svg xmlns="http://www.w3.org/2000/svg" version="1.1" width="200px" height="200px" style="shape-rendering:geometricPrecision; text-rendering:geometricPrecision; image-rendering:optimizeQuality; fill-rule:evenodd; clip-rule:evenodd" xmlns:xlink="http://www.w3.org/1999/xlink">
<g><path style="opacity:0.996" fill="#2b88bc" d="M 75.5,57.5 C 78.8984,57.1796 82.2317,57.513 85.5,58.5C 89.1335,65.2957 92.9669,71.9623 97,78.5C 100.581,71.6701 104.414,65.0035 108.5,58.5C 111.768,57.513 115.102,57.1796 118.5,57.5C 112.136,70.5554 104.969,83.2221 97,95.5C 89.0309,83.2221 81.8643,70.5554 75.5,57.5 Z"/></g>
<g><path style="opacity:0.162" fill="#113347" d="M 129.5,61.5 C 129.253,64.9387 129.586,68.272 130.5,71.5C 129.223,70.3064 128.556,68.6397 128.5,66.5C 128.507,64.6307 128.84,62.964 129.5,61.5 Z"/></g>
<g><path style="opacity:0.994" fill="#2c8cc2" d="M 68.5,61.5 C 69.7773,62.6936 70.4439,64.3603 70.5,66.5C 70.3333,68.1667 70.1667,69.8333 70,71.5C 63.4177,75.2073 56.9177,79.0406 50.5,83C 57,86.8333 63.5,90.6667 70,94.5C 70.8236,97.8823 70.657,101.216 69.5,104.5C 57.1667,97.3333 44.8333,90.1667 32.5,83C 44.7288,76.059 56.7288,68.8923 68.5,61.5 Z"/></g>
<g><path style="opacity:0.997" fill="#2c8cc2" d="M 129.5,61.5 C 142.056,68.0441 154.389,75.0441 166.5,82.5C 155.339,90.2514 143.672,97.2514 131.5,103.5C 129.612,101.012 128.945,98.0122 129.5,94.5C 136.279,90.8942 142.945,87.0608 149.5,83C 142.77,79.6435 136.437,75.8102 130.5,71.5C 129.586,68.272 129.253,64.9387 129.5,61.5 Z"/></g>
<g><path style="opacity:0.125" fill="#0c2533" d="M 114.5,79.5 C 117.687,78.1944 121.02,78.1944 124.5,79.5C 124.376,80.1067 124.043,80.44 123.5,80.5C 120.713,79.5233 117.713,79.19 114.5,79.5 Z"/></g>
<g><path style="opacity:0.996" fill="#2c8cc2" d="M 114.5,79.5 C 117.713,79.19 120.713,79.5233 123.5,80.5C 118.893,89.7597 113.893,98.7597 108.5,107.5C 105.287,107.81 102.287,107.477 99.5,106.5C 104.107,97.2403 109.107,88.2403 114.5,79.5 Z"/></g>
<g><path style="opacity:0.165" fill="#102f41" d="M 129.5,94.5 C 128.945,98.0122 129.612,101.012 131.5,103.5C 130.791,104.404 129.791,104.737 128.5,104.5C 128.187,100.958 128.521,97.6248 129.5,94.5 Z"/></g>
<g><path style="opacity:0.188" fill="#0b2432" d="M 99.5,106.5 C 102.287,107.477 105.287,107.81 108.5,107.5C 105.313,108.806 101.98,108.806 98.5,107.5C 98.6236,106.893 98.9569,106.56 99.5,106.5 Z"/></g>
<g><path style="opacity:0.247" fill="#151414" d="M 16.5,124.5 C 18.2646,123.539 20.2646,123.205 22.5,123.5C 22.7373,124.791 22.404,125.791 21.5,126.5C 20.4479,124.744 18.7812,124.077 16.5,124.5 Z"/></g>
<g><path style="opacity:0.995" fill="#4d4a4a" d="M 87.5,122.5 C 89.1667,122.5 90.8333,122.5 92.5,122.5C 92.2555,131.208 92.5888,139.874 93.5,148.5C 88.9335,147.816 84.2668,147.649 79.5,148C 76.1348,143.181 75.6348,138.014 78,132.5C 80.8055,129.833 83.9721,129.167 87.5,130.5C 87.5,127.833 87.5,125.167 87.5,122.5 Z M 83.5,134.5 C 86.2856,134.956 87.619,136.623 87.5,139.5C 87.597,142.911 85.9304,144.245 82.5,143.5C 81.2214,140.363 81.5547,137.363 83.5,134.5 Z"/></g>
<g><path style="opacity:0.992" fill="#494747" d="M 16.5,124.5 C 18.7812,124.077 20.4479,124.744 21.5,126.5C 20.2778,133.722 18.2778,140.722 15.5,147.5C 13.2573,148.474 10.924,148.808 8.5,148.5C 6.6579,140.132 4.6579,131.798 2.5,123.5C 4.5,123.5 6.5,123.5 8.5,123.5C 9.72717,128.466 10.8938,133.466 12,138.5C 14.1116,134.062 15.6116,129.395 16.5,124.5 Z"/></g>
<g><path style="opacity:0.991" fill="#494646" d="M 27.5,123.5 C 30.7766,123.216 33.9433,123.549 37,124.5C 37.624,126.464 37.124,128.131 35.5,129.5C 33.5914,128.652 31.5914,128.318 29.5,128.5C 29.3505,129.552 29.5172,130.552 30,131.5C 32.3333,133.167 34.6667,134.833 37,136.5C 39.3563,141.053 38.523,144.887 34.5,148C 30.8484,148.499 27.1817,148.665 23.5,148.5C 23.2011,146.396 23.5344,144.396 24.5,142.5C 27.0841,143.393 29.7508,143.726 32.5,143.5C 32.762,142.022 32.4287,140.689 31.5,139.5C 22.5202,135.923 21.1869,130.59 27.5,123.5 Z"/></g>
<g><path style="opacity:0.991" fill="#494747" d="M 47.5,123.5 C 50.5184,123.335 53.5184,123.502 56.5,124C 57.2764,125.77 57.1097,127.603 56,129.5C 49.7642,127.553 46.2642,129.886 45.5,136.5C 46.3413,142.944 50.008,145.277 56.5,143.5C 57.9697,148.001 56.1363,149.667 51,148.5C 41.573,147.375 37.9063,142.041 40,132.5C 40.9227,128.086 43.4227,125.086 47.5,123.5 Z"/></g>
<g><path style="opacity:0.99" fill="#4a4848" d="M 119.5,123.5 C 122.777,123.216 125.943,123.549 129,124.5C 129.52,126.289 129.187,127.956 128,129.5C 121.818,127.485 118.318,129.819 117.5,136.5C 118.836,142.126 122.503,144.793 128.5,144.5C 129.246,145.736 129.579,147.07 129.5,148.5C 115.507,150.339 110.007,144.339 113,130.5C 114.694,127.642 116.861,125.309 119.5,123.5 Z"/></g>
<g><path style="opacity:0.972" fill="#4e4b4b" d="M 172.5,123.5 C 174.167,123.5 175.833,123.5 177.5,123.5C 177.666,130.841 177.5,138.174 177,145.5C 174.103,148.231 170.603,149.231 166.5,148.5C 166.5,146.833 166.5,145.167 166.5,143.5C 168.766,143.859 170.599,143.192 172,141.5C 172.499,135.509 172.666,129.509 172.5,123.5 Z"/></g>
<g><path style="opacity:0.972" fill="#4d4b4b" d="M 181.5,123.5 C 185.182,123.335 188.848,123.501 192.5,124C 197.535,127.013 198.702,131.18 196,136.5C 193.358,139.029 190.192,140.029 186.5,139.5C 186.5,142.5 186.5,145.5 186.5,148.5C 184.833,148.5 183.167,148.5 181.5,148.5C 181.5,140.167 181.5,131.833 181.5,123.5 Z M 186.5,128.5 C 190.677,127.842 192.177,129.508 191,133.5C 189.915,134.293 188.748,134.96 187.5,135.5C 186.526,133.257 186.192,130.924 186.5,128.5 Z"/></g>
<g><path style="opacity:0.984" fill="#4c4949" d="M 65.5,129.5 C 69.4326,129.411 72.2659,131.078 74,134.5C 76.8395,144.983 73.0061,149.483 62.5,148C 60.6667,147.5 59.5,146.333 59,144.5C 58.3333,141.167 58.3333,137.833 59,134.5C 60.2716,131.508 62.4382,129.841 65.5,129.5 Z M 65.5,134.5 C 68.0496,134.884 69.3829,136.384 69.5,139C 67.8265,146.019 65.8265,146.185 63.5,139.5C 63.9024,137.7 64.5691,136.033 65.5,134.5 Z"/></g>
<g><path style="opacity:0.983" fill="#4a4747" d="M 102.5,129.5 C 109.494,130.509 112.161,134.509 110.5,141.5C 107.15,141.335 103.817,141.502 100.5,142C 103.136,144.713 106.136,145.213 109.5,143.5C 109.966,145.201 109.966,146.701 109.5,148C 98,150.5 93.5,146 96,134.5C 97.2716,131.508 99.4382,129.841 102.5,129.5 Z M 101.5,134.5 C 103.346,134.222 104.68,134.889 105.5,136.5C 103.833,137.833 102.167,137.833 100.5,136.5C 100.863,135.817 101.196,135.15 101.5,134.5 Z"/></g>
<g><path style="opacity:0.989" fill="#4a4747" d="M 137.5,129.5 C 146.611,131.267 149.444,136.601 146,145.5C 140.643,149.787 135.643,149.453 131,144.5C 128.663,137.231 130.829,132.231 137.5,129.5 Z M 137.5,134.5 C 140.286,134.956 141.619,136.623 141.5,139.5C 139.949,146.021 137.949,146.021 135.5,139.5C 136.174,137.805 136.841,136.138 137.5,134.5 Z"/></g>
<g><path style="opacity:0.996" fill="#555252" d="M 164.5,135.5 C 164.5,139.5 164.5,143.5 164.5,147.5C 163.167,147.5 161.833,147.5 160.5,147.5C 160.815,143.629 160.482,139.962 159.5,136.5C 158.366,134.219 157.032,134.219 155.5,136.5C 154.518,139.962 154.185,143.629 154.5,147.5C 153.167,147.5 151.833,147.5 150.5,147.5C 150.5,142.167 150.5,136.833 150.5,131.5C 152.398,132.096 154.065,132.096 155.5,131.5C 157.633,129.233 159.966,129.066 162.5,131C 164.037,132.11 164.703,133.61 164.5,135.5 Z"/></g>
<g><path style="opacity:0.439" fill="#272626" d="M 155.5,131.5 C 154.065,132.096 152.398,132.096 150.5,131.5C 150.5,136.833 150.5,142.167 150.5,147.5C 151.833,147.5 153.167,147.5 154.5,147.5C 154.185,143.629 154.518,139.962 155.5,136.5C 155.5,140.5 155.5,144.5 155.5,148.5C 153.5,148.5 151.5,148.5 149.5,148.5C 149.5,142.5 149.5,136.5 149.5,130.5C 151.621,130.325 153.621,130.659 155.5,131.5 Z"/></g>
<g><path style="opacity:0.498" fill="#272525" d="M 164.5,135.5 C 165.485,139.634 165.818,143.968 165.5,148.5C 163.5,148.5 161.5,148.5 159.5,148.5C 159.5,144.5 159.5,140.5 159.5,136.5C 160.482,139.962 160.815,143.629 160.5,147.5C 161.833,147.5 163.167,147.5 164.5,147.5C 164.5,143.5 164.5,139.5 164.5,135.5 Z"/></g>
</svg>
