<?xml version="1.0" encoding="UTF-8"?>
<!DOCTYPE svg PUBLIC "-//W3C//DTD SVG 1.1//EN" "http://www.w3.org/Graphics/SVG/1.1/DTD/svg11.dtd">
<svg xmlns="http://www.w3.org/2000/svg" version="1.1" width="64px" height="64px" style="shape-rendering:geometricPrecision; text-rendering:geometricPrecision; image-rendering:optimizeQuality; fill-rule:evenodd; clip-rule:evenodd" xmlns:xlink="http://www.w3.org/1999/xlink">
<g><path style="opacity:0.791" fill="#0098ff" d="M 47.5,18.5 C 46.791,19.404 45.791,19.7373 44.5,19.5C 36.8778,13.5055 28.8778,13.0055 20.5,18C 18.1923,20.1277 16.5256,22.6277 15.5,25.5C 14.1667,25.5 12.8333,25.5 11.5,25.5C 16.7477,12.7103 26.0811,8.21032 39.5,12C 42.9359,13.2739 45.6026,15.4406 47.5,18.5 Z"/></g>
<g><path style="opacity:0.867" fill="#0098ff" d="M 40.5,31.5 C 39.1516,30.8141 37.985,29.8141 37,28.5C 36.4867,29.5266 35.9867,30.5266 35.5,31.5C 33.847,31.3404 32.5137,30.6737 31.5,29.5C 33.2266,26.772 35.56,24.772 38.5,23.5C 43.9948,25.2813 44.6615,27.9479 40.5,31.5 Z"/></g>
<g><path style="opacity:0.825" fill="#0098ff" d="M 47.5,18.5 C 50.7065,21.7679 52.3732,25.7679 52.5,30.5C 50.8007,30.5271 49.4674,31.1938 48.5,32.5C 48.7629,27.6252 47.4296,23.2918 44.5,19.5C 45.791,19.7373 46.791,19.404 47.5,18.5 Z"/></g>
<g><path style="opacity:0.672" fill="#0098ff" d="M 11.5,25.5 C 12.8333,25.5 14.1667,25.5 15.5,25.5C 13.7992,31.1679 14.4659,36.5012 17.5,41.5C 16.2921,42.2341 14.9587,42.5674 13.5,42.5C 10.5261,37.0924 9.85943,31.4257 11.5,25.5 Z"/></g>
<g><path style="opacity:0.832" fill="#0098ff" d="M 31.5,29.5 C 32.5137,30.6737 33.847,31.3404 35.5,31.5C 33.9236,32.1429 32.5903,33.1429 31.5,34.5C 30.8333,34.5 30.5,34.8333 30.5,35.5C 29.8333,35.5 29.5,35.8333 29.5,36.5C 28.8333,36.5 28.1667,36.5 27.5,36.5C 25.5,36.5 23.5,36.5 21.5,36.5C 18.7774,33.8215 19.1107,31.3215 22.5,29C 23.5,28.3333 24.5,28.3333 25.5,29C 27.3373,32.1019 29.3373,32.2686 31.5,29.5 Z"/></g>
<g><path style="opacity:0.813" fill="#0098ff" d="M 40.5,31.5 C 38.8333,33.8333 36.8333,35.8333 34.5,37.5C 33.5,36.8333 32.5,36.1667 31.5,35.5C 31.5,35.1667 31.5,34.8333 31.5,34.5C 32.5903,33.1429 33.9236,32.1429 35.5,31.5C 35.9867,30.5266 36.4867,29.5266 37,28.5C 37.985,29.8141 39.1516,30.8141 40.5,31.5 Z"/></g>
<g><path style="opacity:0.864" fill="#0098ff" d="M 30.5,35.5 C 30.8333,35.5 31.1667,35.5 31.5,35.5C 32.5,36.1667 33.5,36.8333 34.5,37.5C 32.5193,39.1436 30.5193,40.8103 28.5,42.5C 25.536,41.1921 23.2026,39.1921 21.5,36.5C 23.5,36.5 25.5,36.5 27.5,36.5C 28.1667,37.8333 28.8333,37.8333 29.5,36.5C 30.1667,36.5 30.5,36.1667 30.5,35.5 Z"/></g>
<g><path style="opacity:0.871" fill="#0098ff" d="M 52.5,30.5 C 52.7205,34.8323 51.7205,38.8323 49.5,42.5C 48.1667,42.5 46.8333,42.5 45.5,42.5C 47.2916,39.4541 48.2916,36.1207 48.5,32.5C 49.4674,31.1938 50.8007,30.5271 52.5,30.5 Z"/></g>
<g><path style="opacity:0.78" fill="#0098ff" d="M 17.5,41.5 C 23.3871,48.4739 30.7204,50.3073 39.5,47C 41.66,45.668 43.66,44.168 45.5,42.5C 46.8333,42.5 48.1667,42.5 49.5,42.5C 41.4039,53.083 31.4039,55.2496 19.5,49C 17.2941,46.9633 15.2941,44.7966 13.5,42.5C 14.9587,42.5674 16.2921,42.2341 17.5,41.5 Z"/></g>
</svg>
